<svg xmlns="http://www.w3.org/2000/svg" viewBox="0 0 512 512"><style>.st0{fill:#90C53F;} .st1{fill:#FFFFFF;}</style><path class="st0" d="M478.7 349.4V162.6c0-20.2-10.9-38.8-28.5-48.8L281.9 19.2c-17-9.6-37.8-9.6-54.9 0L58.8 113.8c-17.6 9.9-28.5 28.5-28.5 48.8v186.8c0 20.2 10.9 38.8 28.5 48.8l168.3 94.7c17 9.6 37.8 9.6 54.9 0l168.3-94.7c17.5-9.9 28.4-28.6 28.4-48.8z" id="node"/><g id="recycle_x5F_symbol"><path class="st1" d="M298.4 134c-15.2-6.5-31.9-10.1-49.5-10.1-27.9 0-53.8 9.1-74.7 24.5l-12.5-18.1c-.7-1.1-2-1.6-3.3-1.3-1.3.3-2.2 1.3-2.5 2.6l-7.2 42.4-5.1 29.9c-.2 1 .1 1.9.8 2.7.6.7 1.5 1 2.4 1h.2l33.6-2.1 37.8-2.4c1.3-.1 2.4-.9 2.8-2.1.4-1.2.1-2.5-.8-3.4L204.7 183c12.7-8.4 28-13.4 44.4-13.4 11.5 0 22.5 2.4 32.4 6.8.8.3 1.7.4 2.5 0 .8-.3 1.4-1 1.7-1.8l14.6-36.7c.5-1.4-.3-3.2-1.9-3.9zM120.3 260.9c1.5 16.5 6.2 32.9 14.5 48.3 13.2 24.6 33.4 43.1 56.9 54.2l-10 19.6c-.6 1.2-.4 2.5.4 3.5s2.2 1.3 3.4.9l40.8-13.7 28.8-9.7c.9-.3 1.6-1 2-1.9.3-.9.2-1.8-.2-2.6 0-.1-.1-.1-.1-.2l-17.7-28.6-20-32.2c-.7-1.1-1.9-1.7-3.2-1.5-1.2.2-2.3 1.1-2.6 2.3l-5.4 20.8c-13.5-7.2-25-18.3-32.8-32.8-5.4-10.2-8.5-21-9.3-31.8-.1-.8-.5-1.7-1.2-2.2-.7-.5-1.5-.8-2.4-.7l-39.2 4.5c-1.6.5-2.9 2-2.7 3.8zM317.1 353.6c13.5-9.5 25.4-21.8 34.6-36.8 14.7-23.8 20.5-50.5 18.5-76.4l22-1.2c1.3-.1 2.4-.9 2.8-2.1.4-1.2.1-2.6-.9-3.4l-32.3-28.5-22.8-20.1c-.7-.6-1.7-.9-2.7-.7-.9.2-1.7.7-2.1 1.5 0 .1-.1.1-.1.2l-15.9 29.7-17.9 33.4c-.6 1.1-.5 2.5.3 3.5s2.1 1.4 3.3 1.1l20.7-5.7c.5 15.3-3.4 30.8-12 44.8-6.1 9.8-13.9 17.8-22.8 24-.7.5-1.2 1.2-1.3 2.1-.1.8.1 1.7.6 2.4l23.5 31.7c1.2 1.2 3.1 1.5 4.5.5z"/></g></svg>